<svg width="82" height="37" viewBox="0 0 82 37" fill="none" xmlns="http://www.w3.org/2000/svg">
<path d="M1.64242 15.56L1.16242 15.6C0.962422 15.62 0.922422 15.6 0.902422 15.38C0.882422 15.14 0.922422 15.12 1.12242 15.08C1.94242 14.9 3.34242 14.52 4.32242 14.2C4.44242 14.2 4.54242 14.28 4.54242 14.36C4.52242 14.94 4.50242 15.54 4.50242 16.04C5.14242 14.82 6.28242 14.14 7.32242 14.14C8.46242 14.14 9.72242 14.64 10.1824 16.12C10.9224 14.84 11.9224 14.14 13.3024 14.14C13.9224 14.14 16.1424 14.46 16.1424 17C16.1424 17.74 16.1224 18.74 16.1224 19.22V20.6C16.1224 21.8 16.1224 22.42 16.2624 22.72C16.4224 23.02 16.8424 23.04 17.3824 23.1C17.5024 23.12 17.5424 23.14 17.5424 23.32C17.5424 23.52 17.5224 23.56 17.3824 23.56C16.6824 23.56 15.8624 23.5 15.1824 23.5C14.4824 23.5 13.6424 23.54 12.8624 23.56C12.7024 23.56 12.6824 23.52 12.6824 23.32C12.6824 23.12 12.7224 23.1 12.8624 23.1C13.4224 23.04 13.7424 23.04 13.9024 22.72C14.0624 22.4 14.0624 21.76 14.0624 20.6V17.88C14.0624 17.3 14.0824 16.78 13.8424 16.16C13.6224 15.56 13.2024 15.16 12.4424 15.16C11.6824 15.16 11.1024 15.66 10.7224 16.3C10.3624 16.88 10.3024 17.24 10.3024 17.86V20.6C10.3024 21.8 10.3024 22.42 10.4424 22.72C10.5824 23.02 10.9824 23.04 11.5824 23.1C11.7024 23.12 11.7224 23.16 11.7224 23.34C11.7224 23.52 11.7024 23.56 11.5624 23.56C10.8024 23.54 10.0024 23.5 9.36242 23.5C8.64242 23.5 7.82242 23.54 7.08242 23.56C6.92242 23.56 6.90242 23.52 6.90242 23.32C6.90242 23.14 6.94242 23.1 7.08242 23.1C7.62242 23.06 7.94242 23.04 8.10242 22.72C8.26242 22.4 8.26242 21.76 8.26242 20.6V17.88C8.26242 17.3 8.30242 16.78 8.04242 16.16C7.80242 15.54 7.36242 15.16 6.62242 15.16C5.88242 15.16 5.32242 15.66 4.94242 16.3C4.58242 16.9 4.50242 17.26 4.50242 17.9V20.6C4.50242 21.8 4.48242 22.42 4.62242 22.72C4.76242 23.04 5.18242 23.04 5.74242 23.1C5.86242 23.12 5.90242 23.16 5.90242 23.36C5.90242 23.54 5.86242 23.56 5.74242 23.56C5.04242 23.54 4.20242 23.5 3.52242 23.5C2.82242 23.5 2.02242 23.54 1.28242 23.56C1.14242 23.56 1.10242 23.52 1.10242 23.34C1.10242 23.16 1.14242 23.12 1.28242 23.1C1.84242 23.04 2.16242 23.04 2.34242 22.72C2.52242 22.4 2.48242 21.76 2.48242 20.6V17.64C2.48242 16.92 2.48242 16.34 2.34242 15.98C2.22242 15.64 2.02242 15.52 1.64242 15.56ZM23.2866 14.14C26.0066 14.14 27.9666 16.26 27.9666 19.02C27.9666 21.7 26.1066 23.88 23.2866 23.88C20.5266 23.88 18.6266 21.78 18.6266 19.06C18.6266 16.38 20.5266 14.14 23.2866 14.14ZM23.2866 14.74C21.7466 14.74 20.9666 16.62 20.9666 19.02C20.9666 21.52 21.7066 23.28 23.2866 23.28C24.8266 23.28 25.6266 21.38 25.6266 19.02C25.6266 16.48 24.8866 14.74 23.2866 14.74ZM30.0032 15.56L29.5032 15.6C29.2832 15.62 29.2432 15.6 29.2232 15.38C29.2032 15.16 29.2432 15.12 29.4632 15.08C30.2432 14.92 31.7232 14.52 32.6632 14.18C32.8032 14.18 32.9232 14.26 32.9232 14.36C32.9032 14.92 32.8632 15.52 32.8632 16.32C33.4632 15.24 34.3032 14.12 35.4432 14.12C36.1232 14.12 36.5432 14.38 36.5432 14.74C36.5432 15.54 35.9432 16.24 35.4632 16.24C35.0232 16.24 34.7432 15.8 34.3432 15.8C34.1032 15.8 33.8232 15.9 33.4232 16.4C33.0432 16.86 32.8632 17.4 32.8632 18.16V20.6C32.8632 21.8 32.8632 22.44 33.0032 22.72C33.1632 23.04 33.4832 23.04 34.1832 23.1C34.3032 23.1 34.3232 23.14 34.3232 23.36C34.3232 23.54 34.2832 23.56 34.1832 23.56C33.4232 23.54 32.5832 23.5 31.9232 23.5C31.2432 23.5 30.3232 23.54 29.5832 23.56C29.4632 23.56 29.4232 23.54 29.4232 23.36C29.4232 23.14 29.4632 23.12 29.5832 23.1C30.1832 23.04 30.5032 23.04 30.6432 22.72C30.8232 22.38 30.8432 21.76 30.8432 20.6V17.64C30.8432 16.92 30.8032 16.38 30.6832 16C30.5832 15.64 30.3432 15.54 30.0032 15.56ZM39.7552 18.26C39.7152 18.44 39.6752 18.64 39.6752 18.98C39.6752 21.62 41.2952 22.94 42.5352 22.94C43.8352 22.94 44.5752 22.5 45.3152 21.5C45.3752 21.42 45.4552 21.4 45.5152 21.4C45.5752 21.4 45.6352 21.44 45.6952 21.48C45.7752 21.54 45.8552 21.62 45.8552 21.68C45.8552 21.72 45.8152 21.8 45.7552 21.9C44.8352 23.32 43.7152 23.88 42.0552 23.88C39.2952 23.88 37.4352 21.84 37.4352 19.08C37.4352 16.38 39.3552 14.14 42.0752 14.14C44.7152 14.14 45.9152 16.46 45.9752 17.86C45.9752 18.02 45.9752 18.06 45.8752 18.2C45.7752 18.32 45.6952 18.3 45.5752 18.3C43.5552 18.24 41.5352 18.22 39.7552 18.26ZM39.8552 17.54C41.2552 17.58 42.1952 17.58 43.5952 17.48C43.7552 17.46 43.7752 17.34 43.7752 17.16C43.7152 16.04 43.2352 14.74 42.0752 14.74C40.9952 14.74 40.1552 15.9 39.8552 17.54Z" fill="#55A500"/>
<path d="M0.019989 29.1948H80.02L69.571 19V37" stroke="#55A500"/>
</svg>
